<svg width="500" height="500" viewBox="0 0 500 500" fill="none" xmlns="http://www.w3.org/2000/svg">
<path d="M120.82 421.41C141.42 407.02 146.1 380.31 145.28 356.29C145.14 352.29 145.58 348.06 143.68 344.54C141.78 341.02 137.32 338.62 133.68 340.31C130.68 341.71 129.41 345.18 127.74 348.04C125.52 351.868 122.261 354.989 118.34 357.04C115.79 358.36 112.64 359.17 110.12 357.78C106.66 355.88 106.25 351.1 106.28 347.11C106.32 339.683 106.363 332.253 106.41 324.82C106.41 320.82 106.41 316.77 105.21 312.98C104.01 309.19 101.21 305.69 97.44 304.62C93.67 303.55 88.96 305.75 88.16 309.62C87.82 311.24 88.16 312.93 88.04 314.62C87.92 316.31 87.16 318.11 85.59 318.62C84.02 319.13 82.4 317.96 81.21 316.79C77.1 312.79 74.31 307.58 71.7 302.42C69.09 297.26 66.56 291.99 62.82 287.6C59.08 283.21 53.92 279.73 48.22 279.41C42.52 279.09 36.42 282.61 34.98 288.21C33.54 293.81 36.81 299.53 40.38 304.08C45.7058 310.808 51.9775 316.729 59 321.66C60.25 322.56 61.62 323.52 62.1 325C62.96 327.65 60.44 330.29 57.82 331.17C54.82 332.17 51.63 331.85 48.52 332.17C45.41 332.49 42 334 40.83 336.89C39.19 341 42.6 345.23 46 348C52.7184 353.596 60.3498 357.993 68.56 361C71.5 362.08 74.56 363 76.95 365.08C79.34 367.16 75.64 374.43 74.21 377.24C72.78 380.05 74.21 377.24 71.14 376.67C68.07 376.1 65.32 374.43 62.39 373.33C56.92 371.26 49.84 371.64 46.33 376.33C44.03 379.44 43.82 383.78 44.99 387.49C46.16 391.2 48.52 394.39 50.99 397.34C59.77 407.64 70.99 415.93 83.72 420.34C96.45 424.75 108.2 425.94 120.83 421.34" fill="#EBEBEB"/>
<path d="M121.14 439.21C120.022 428.077 117.842 417.077 114.63 406.36C110.641 393.28 105.907 380.439 100.45 367.9L96.21 358C94.81 354.76 93.43 351.54 91.88 348.48C88.9048 342.612 85.6064 336.913 82 331.41C78.58 326.13 75.15 321.24 71.91 316.69C68.67 312.14 65.54 307.98 62.54 304.29C57.8227 298.459 52.6498 293.012 47.07 288C45.07 286.22 43.53 284.89 42.46 284L41.23 283C41.0956 282.874 40.9481 282.764 40.79 282.67C40.9055 282.811 41.0363 282.938 41.18 283.05L42.36 284.11C43.36 285.03 44.94 286.39 46.88 288.2C52.3562 293.292 57.4468 298.784 62.11 304.63C65.11 308.33 68.11 312.51 71.38 317.06C74.65 321.61 78.01 326.51 81.38 331.79C84.9674 337.273 88.2523 342.948 91.22 348.79C92.76 351.79 94.13 355.02 95.52 358.28L99.75 368.16C105.214 380.68 109.972 393.497 114 406.55C117.233 417.221 119.457 428.173 120.64 439.26" fill="#E0E0E0"/>
<path d="M91.67 348.46C91.864 347.91 91.9949 347.34 92.06 346.76C92.27 345.66 92.52 344.06 92.8 342.07C93.36 338.07 93.95 332.59 94.58 326.52C95.21 320.45 95.88 315 96.5 311C96.81 309 97.07 307.43 97.27 306.32C97.4082 305.753 97.482 305.173 97.49 304.59C97.2665 305.128 97.099 305.688 96.99 306.26C96.71 307.35 96.36 308.94 95.99 310.91C95.24 314.85 94.48 320.35 93.86 326.43C93.24 332.51 92.7 337.86 92.28 342C92.08 343.87 91.91 345.44 91.78 346.71C91.678 347.287 91.6411 347.874 91.67 348.46Z" fill="#E0E0E0"/>
<path d="M40.42 338.88C41.0775 339.025 41.747 339.108 42.42 339.13C43.74 339.24 45.64 339.4 47.99 339.68C52.68 340.18 59.14 341.11 66.22 342.44C73.3 343.77 79.66 345.28 84.22 346.5C86.51 347.09 88.35 347.61 89.62 347.97C90.2696 348.196 90.9393 348.36 91.62 348.46C91.006 348.143 90.3631 347.885 89.7 347.69C88.45 347.25 86.63 346.69 84.36 345.99C79.81 344.64 73.45 343.07 66.36 341.71C59.27 340.35 52.76 339.53 48.04 339.15C45.68 338.95 43.76 338.87 42.44 338.84C41.7668 338.793 41.0908 338.807 40.42 338.88Z" fill="#E0E0E0"/>
<path d="M114 405.41C114 405.41 114.15 405.21 114.36 404.79L115.23 402.93C115.99 401.32 117.02 398.93 118.23 396.02C120.7 390.15 123.86 381.93 127.23 372.82C130.6 363.71 133.68 355.46 136.02 349.55L138.82 342.55C139.12 341.79 139.37 341.16 139.57 340.64C139.673 340.424 139.747 340.195 139.79 339.96C139.647 340.151 139.53 340.359 139.44 340.58L138.56 342.43C137.81 344.05 136.78 346.43 135.56 349.35C133.09 355.22 129.93 363.44 126.56 372.56C123.19 381.68 120.12 389.91 117.77 395.82C116.62 398.7 115.68 401.06 114.97 402.82C114.67 403.58 114.42 404.21 114.22 404.73C114.123 404.948 114.049 405.176 114 405.41Z" fill="#E0E0E0"/>
<path d="M45.89 383.46C46.1018 383.586 46.3309 383.68 46.57 383.74L48.57 384.41L55.87 386.77C62.02 388.77 70.5 391.62 79.87 394.77C89.24 397.92 97.73 400.72 103.94 402.59C107.04 403.53 109.55 404.26 111.3 404.73L113.3 405.26C113.529 405.339 113.768 405.383 114.01 405.39C113.8 405.268 113.575 405.173 113.34 405.11L111.34 404.45L104.05 402.09C97.89 400.09 89.42 397.24 80.05 394.09C70.68 390.94 62.19 388.14 56 386.27C52.9 385.33 50.38 384.6 48.63 384.13L46.63 383.6C46.3892 383.526 46.1411 383.479 45.89 383.46Z" fill="#E0E0E0"/>
<path d="M373.2 71.38L318.16 205.79L416.97 245.47L471.17 111.94L373.2 71.38Z" fill="#E6E6E6"/>
<path d="M373.2 71.38L471.2 111.83H471.31L471.26 111.94C456.04 149.46 437.32 195.63 417.09 245.49L417.04 245.62H416.9L416.18 245.33L318.1 205.92H317.98L318.03 205.8L373.2 71.38L318.28 205.84L318.21 205.67L416.3 245.05L417.02 245.34L416.83 245.42C437.08 195.57 455.83 149.42 471.06 111.89L471.12 112.04L373.2 71.38Z" fill="#E6E6E6"/>
<path d="M365.99 58.55L310.95 192.96L409.76 232.65L463.96 99.11L365.99 58.55Z" fill="#FAFAFA"/>
<path d="M366 58.55L464 99H464.11V99.11L409.89 232.7L409.84 232.84L409.71 232.78L408.99 232.49L310.9 193.09L310.78 193.04L310.83 192.91L366 58.55L311.07 193L311 192.83L409.09 232.22L409.81 232.5L409.63 232.58C429.87 182.73 448.63 136.58 463.85 99.05L463.91 99.21L366 58.55Z" fill="#EBEBEB"/>
<path d="M440.37 119.54C440.28 119.77 423.15 113.3 402.11 105.09C381.07 96.88 364.11 90.09 364.16 89.84C364.21 89.59 381.38 96.08 402.42 104.29C423.46 112.5 440.46 119.32 440.37 119.54Z" fill="#E0E0E0"/>
<path d="M436.59 131.84C436.5 132.06 419.37 125.59 398.33 117.39C377.29 109.19 360.33 102.39 360.38 102.13C360.43 101.87 377.6 108.38 398.64 116.59C419.68 124.8 436.67 131.62 436.59 131.84Z" fill="#E0E0E0"/>
<path d="M423.81 169.1C423.73 169.32 406.59 162.85 385.55 154.65C364.51 146.45 347.55 139.65 347.61 139.39C347.67 139.13 364.82 145.64 385.87 153.84C406.92 162.04 423.9 168.88 423.81 169.1Z" fill="#E0E0E0"/>
<path d="M417.78 181.69C417.7 181.91 400.56 175.44 379.52 167.24C358.48 159.04 341.52 152.24 341.58 151.98C341.64 151.72 358.79 158.22 379.84 166.43C400.89 174.64 417.87 181.46 417.78 181.69Z" fill="#E0E0E0"/>
<path d="M412.77 194.4C412.68 194.62 395.55 188.15 374.51 179.95C353.47 171.75 336.51 164.95 336.57 164.69C336.63 164.43 353.78 170.94 374.83 179.14C395.88 187.34 412.86 194.18 412.77 194.4Z" fill="#E0E0E0"/>
<path d="M407.76 207.11C407.67 207.33 390.54 200.86 369.5 192.66C348.46 184.46 331.5 177.66 331.56 177.4C331.62 177.14 348.77 183.65 369.82 191.85C390.87 200.05 407.85 206.89 407.76 207.11Z" fill="#E0E0E0"/>
<path d="M377.4 106.43C377.15 106.95 376.13 109.31 376.13 109.31L417.82 126.22L419.09 122.64L377.4 106.43Z" fill="#EBEBEB"/>
<path d="M356.41 111.66C356.15 112.18 354.62 115.38 354.62 115.38L432.77 145.14L434.69 141.06L356.41 111.66Z" fill="#EBEBEB"/>
<path d="M351.87 124.32L350.09 128L428.23 157.76L430.15 153.68L351.87 124.32Z" fill="#EBEBEB"/>
<path d="M347.94 137.6C347.86 137.79 346.54 141.6 346.54 141.6L385.65 156.6L387.85 152.01L347.94 137.6Z" fill="#EBEBEB"/>
<path d="M450.12 437.64C450.12 437.79 357.28 437.9 242.8 437.9C128.32 437.9 35.45 437.79 35.45 437.64C35.45 437.49 128.27 437.38 242.8 437.38C357.33 437.38 450.12 437.5 450.12 437.64Z" fill="#263238"/>
<path d="M98.94 66.79C97.6 112 93.67 281.94 92.63 327.28C92.56 330.253 93.6689 333.133 95.7148 335.291C97.7607 337.45 100.577 338.711 103.55 338.8L289.79 344.49C291.276 344.535 292.756 344.286 294.145 343.757C295.534 343.228 296.805 342.429 297.884 341.406C298.963 340.384 299.83 339.158 300.433 337.799C301.036 336.441 301.365 334.976 301.4 333.49L304.3 202.15L320.07 201.89C321.935 201.859 323.715 201.102 325.031 199.78C326.348 198.458 327.097 196.675 327.12 194.81L328.33 89C328.349 87.107 327.618 85.2833 326.297 83.9269C324.976 82.5706 323.173 81.7916 321.28 81.76L307 81.4801L307.11 71.25C307.142 68.2923 306.004 65.4417 303.944 63.3194C301.883 61.1972 299.067 59.9753 296.11 59.92L110.32 55.92C107.375 55.8714 104.529 56.985 102.399 59.0195C100.269 61.0541 99.0263 63.8458 98.94 66.79Z" fill="#2274C3"/>
<path opacity="0.4" d="M98.94 66.79C97.6 112 93.67 281.94 92.63 327.28C92.56 330.253 93.6689 333.133 95.7148 335.291C97.7607 337.45 100.577 338.711 103.55 338.8L289.79 344.49C291.276 344.535 292.756 344.286 294.145 343.757C295.534 343.228 296.805 342.429 297.884 341.406C298.963 340.384 299.83 339.158 300.433 337.799C301.036 336.441 301.365 334.976 301.4 333.49L304.3 202.15L320.07 201.89C321.935 201.859 323.715 201.102 325.031 199.78C326.348 198.458 327.097 196.675 327.12 194.81L328.33 89C328.349 87.107 327.618 85.2833 326.297 83.9269C324.976 82.5706 323.173 81.7916 321.28 81.76L307 81.4801L307.11 71.25C307.142 68.2923 306.004 65.4417 303.944 63.3194C301.883 61.1972 299.067 59.9753 296.11 59.92L110.32 55.92C107.375 55.8714 104.529 56.985 102.399 59.0195C100.269 61.0541 99.0263 63.8458 98.94 66.79Z" fill="black"/>
<path d="M113.09 68.73L96.66 330.4L288.57 341.15L304.06 81.45L113.09 68.73Z" fill="#E0E0E0"/>
<path d="M90.02 63.05L91.3 325.24L283.5 323L281.42 62.85L90.02 63.05Z" fill="#EBEBEB"/>
<path d="M64.86 81.09L101.14 340.76L291.32 312.88L254.52 55.34L64.86 81.09Z" fill="#FAFAFA"/>
<path d="M64.86 81.09L254.49 55.09H254.7V55.3C265.05 127.65 277.79 216.68 291.54 312.83V313.09H291.28L289.9 313.29L101.17 341H100.93V340.76C79.61 187.13 65.18 83.13 64.93 81.06L101.44 340.7L101.17 340.49L289.96 312.8L291.35 312.59L291.13 312.89C277.41 216.73 264.7 127.7 254.38 55.34L254.62 55.52L64.86 81.09Z" fill="#263238"/>
<path d="M242.57 141.26C242.64 141.69 210.04 147.16 169.76 153.49C129.48 159.82 96.76 164.59 96.76 164.17C96.76 163.75 129.29 158.27 169.57 151.94C209.85 145.61 242.5 140.84 242.57 141.26Z" fill="#263238"/>
<path d="M256.5 211C256.56 211.42 223.96 216.9 183.69 223.22C143.42 229.54 110.69 234.33 110.69 233.9C110.69 233.47 143.21 228 183.5 221.68C223.79 215.36 256.43 210.56 256.5 211Z" fill="#263238"/>
<path d="M258.53 236.1C258.59 236.53 225.99 242 185.72 248.32C145.45 254.64 112.72 259.43 112.72 259C112.72 258.57 145.24 253.1 185.53 246.78C225.82 240.46 258.46 235.67 258.53 236.1Z" fill="#263238"/>
<path d="M235.17 86.1701C235.17 86.5601 213.29 89.9701 186.27 93.7901C159.25 97.6101 137.27 100.39 137.27 100C137.27 99.6101 159.15 96.1901 186.18 92.3801C213.21 88.5701 235.15 85.7801 235.17 86.1701Z" fill="#263238"/>
<path d="M238.26 100.07C238.26 100.46 216.38 103.88 189.36 107.69C162.34 111.5 140.36 114.29 140.36 113.9C140.36 113.51 162.23 110.1 189.26 106.28C216.29 102.46 238.25 99.68 238.26 100.07Z" fill="#263238"/>
<path d="M242 114.74C242 115.14 220.12 118.55 193.09 122.37C166.06 126.19 144.15 128.96 144.09 128.57C144.03 128.18 166 124.77 193 121C220 117.23 242 114.35 242 114.74Z" fill="#263238"/>
<path d="M262.26 260.48C262.33 260.9 229.73 266.38 189.45 272.7C149.17 279.02 116.45 283.81 116.45 283.38C116.45 282.95 148.98 277.48 189.26 271.16C229.54 264.84 262.19 260.05 262.26 260.48Z" fill="#263238"/>
<path d="M266 284.86C266.07 285.28 233.47 290.76 193.2 297.08C152.93 303.4 120.2 308.19 120.14 307.76C120.08 307.33 152.67 301.86 192.96 295.54C233.25 289.22 265.93 284.43 266 284.86Z" fill="#263238"/>
<path d="M127.16 155.4C127.24 156.4 127.79 161.06 127.79 161.06L208.18 149.54L206.93 142.81L127.16 155.4Z" fill="#2274C3"/>
<path d="M99.16 182.64C99.25 183.64 99.76 190.07 99.76 190.07L248.69 165.48L247.98 157.38L99.16 182.64Z" fill="#2274C3"/>
<path d="M103.59 206.5C103.68 207.5 104.19 213.94 104.19 213.94L253.12 189.35L252.41 181.24L103.59 206.5Z" fill="#2274C3"/>
<path d="M109.54 230.79C109.54 231.16 111 238.34 111 238.34L185.63 226.2L184.89 217.03L109.54 230.79Z" fill="#2274C3"/>
<path d="M87.86 98.58L94.54 146.78L138.43 140.63L132.45 92.58L87.86 98.58Z" fill="#263238"/>
<path d="M87.86 98.58L94.54 146.78L138.43 140.63L132.45 92.58L87.86 98.58Z" fill="#2274C3"/>
<mask id="mask0_40_217" style="mask-type:luminance" maskUnits="userSpaceOnUse" x="87" y="92" width="52" height="55">
<path d="M87.86 98.58L94.54 146.78L138.43 140.63L132.45 92.58L87.86 98.58Z" fill="white"/>
</mask>
<g mask="url(#mask0_40_217)">
<path d="M109.74 138.5L123 134.92C122.79 133.33 121.54 127.29 121.54 127.29C121.54 127.29 126.97 125.38 125.99 119.78C125.01 114.18 121.66 101.54 121.66 101.54C118.237 100.777 114.672 100.94 111.332 102.012C107.993 103.085 104.999 105.027 102.66 107.64L101.95 108.43L109.74 138.5Z" fill="#FFBE9D"/>
<path d="M122.13 111.38C122.027 111.329 121.936 111.257 121.863 111.169C121.789 111.081 121.736 110.978 121.704 110.867C121.673 110.757 121.666 110.641 121.682 110.527C121.699 110.414 121.739 110.305 121.8 110.208C121.861 110.111 121.942 110.028 122.038 109.964C122.133 109.9 122.241 109.857 122.354 109.837C122.467 109.818 122.583 109.822 122.694 109.85C122.806 109.878 122.91 109.929 123 110C123.093 110.055 123.174 110.129 123.238 110.216C123.303 110.303 123.349 110.403 123.374 110.508C123.399 110.613 123.403 110.723 123.385 110.83C123.367 110.936 123.328 111.039 123.27 111.13C123.151 111.313 122.965 111.442 122.751 111.489C122.538 111.536 122.315 111.497 122.13 111.38Z" fill="#263238"/>
<path d="M123.25 109.85C123.18 109.97 122.55 109.65 121.78 109.79C121.01 109.93 120.53 110.43 120.43 110.35C120.33 110.27 120.43 110.12 120.64 109.89C120.92 109.587 121.293 109.387 121.7 109.32C122.105 109.253 122.52 109.313 122.89 109.49C123.17 109.64 123.28 109.8 123.25 109.85Z" fill="#263238"/>
<path d="M114.51 112.18C114.611 112.218 114.704 112.275 114.783 112.349C114.862 112.423 114.926 112.512 114.971 112.61C115.015 112.709 115.04 112.815 115.043 112.923C115.047 113.031 115.028 113.139 114.99 113.24C114.951 113.341 114.893 113.434 114.818 113.512C114.744 113.591 114.655 113.654 114.556 113.698C114.457 113.742 114.35 113.766 114.242 113.769C114.134 113.772 114.026 113.754 113.925 113.715C113.824 113.676 113.731 113.618 113.653 113.543C113.574 113.469 113.511 113.38 113.467 113.281C113.423 113.182 113.399 113.075 113.396 112.967C113.393 112.859 113.411 112.751 113.45 112.65C113.528 112.447 113.684 112.284 113.883 112.196C114.081 112.107 114.307 112.102 114.51 112.18Z" fill="#263238"/>
<path d="M115 112.09C114.93 112.2 114.3 111.88 113.54 112.02C112.78 112.16 112.28 112.67 112.18 112.58C112.08 112.49 112.18 112.36 112.39 112.12C112.681 111.831 113.054 111.639 113.459 111.569C113.863 111.499 114.279 111.555 114.65 111.73C114.94 111.88 115.06 112 115 112.09Z" fill="#263238"/>
<path d="M119.29 117.86C119.656 117.628 120.058 117.459 120.48 117.36C120.68 117.3 120.83 117.23 120.83 117.12C120.795 116.917 120.705 116.726 120.57 116.57L119.67 115.12C118.854 113.903 118.157 112.611 117.59 111.26C118.536 112.38 119.36 113.597 120.05 114.89L120.92 116.36C121.099 116.592 121.195 116.877 121.19 117.17C121.177 117.254 121.144 117.333 121.093 117.401C121.043 117.469 120.976 117.524 120.9 117.56C120.795 117.61 120.684 117.647 120.57 117.67C120.157 117.805 119.724 117.869 119.29 117.86Z" fill="#263238"/>
<path d="M117 119.18C116.11 118.85 119.43 119.94 121 119.57C120.814 120.022 120.481 120.398 120.054 120.636C119.627 120.874 119.132 120.96 118.65 120.88C116.79 120.58 117 119.18 117 119.18Z" fill="white"/>
<path d="M121.51 127.21C118.94 127.742 116.269 127.495 113.84 126.5C113.84 126.5 116.31 130.2 121.84 128.65L121.51 127.21Z" fill="#EB996E"/>
<path d="M102.87 113.83C102.74 113.83 98.65 114.3 100.2 118.83C101.75 123.36 105.86 120.33 105.83 120.2C105.8 120.07 102.87 113.83 102.87 113.83Z" fill="#FFBE9D"/>
<path d="M103.88 119.12C103.88 119.12 103.82 119.2 103.7 119.31C103.537 119.453 103.326 119.528 103.11 119.52C102.57 119.52 101.9 118.88 101.6 118.06C101.456 117.67 101.402 117.254 101.44 116.84C101.436 116.682 101.469 116.526 101.537 116.383C101.604 116.241 101.705 116.116 101.83 116.02C101.912 115.964 102.012 115.94 102.111 115.951C102.21 115.962 102.302 116.008 102.37 116.08C102.48 116.19 102.48 116.29 102.51 116.29C102.54 116.29 102.58 116.18 102.51 116C102.444 115.897 102.345 115.82 102.23 115.78C102.154 115.748 102.072 115.732 101.99 115.732C101.908 115.732 101.826 115.748 101.75 115.78C101.574 115.882 101.428 116.028 101.325 116.203C101.221 116.378 101.165 116.577 101.16 116.78C101.097 117.242 101.149 117.713 101.31 118.15C101.425 118.567 101.662 118.941 101.989 119.224C102.316 119.507 102.72 119.686 103.15 119.74C103.284 119.734 103.415 119.698 103.533 119.634C103.651 119.57 103.752 119.479 103.83 119.37C103.91 119.23 103.9 119.12 103.88 119.12Z" fill="#EB996E"/>
<path d="M121.58 101.38C120.85 105.49 115.58 108.04 111.52 109.03C113.11 107.03 112 107.58 112.96 106.19C110.313 109.511 106.556 111.766 102.38 112.54C101.887 111.652 101.579 110.674 101.472 109.665C101.365 108.655 101.462 107.634 101.758 106.663C102.054 105.692 102.542 104.79 103.193 104.011C103.845 103.232 104.646 102.593 105.55 102.13C106.74 101.52 108.06 101.23 109.29 100.7C110.29 100.25 111.29 99.62 112.35 99.25C115.55 98.15 120.72 96.25 121.58 101.38Z" fill="#263238"/>
<path d="M104.5 110C104.39 110.58 104.4 117.14 104.4 117.14L101.83 111.29L104.5 110Z" fill="#263238"/>
<path d="M83.46 161.85L94.57 145.48C96.6817 142.234 99.5286 139.531 102.88 137.59C104.654 136.549 106.581 135.793 108.59 135.35C113.524 135.951 118.524 135.019 122.91 132.68C126.909 132.373 130.931 132.755 134.8 133.81L156.8 138.29L153.62 157.59L142 156L144.52 173.12L151.44 198.12L109.08 206.48L105.32 183.31L102.24 166.62L97.24 173.72L83.46 161.85Z" fill="#455A64"/>
</g>
<path d="M323.69 434.16L323.64 424.96L340.86 424.76L341.08 438.21L340.01 438.29C335.26 438.61 315.84 439.59 312.65 438.66C309.1 437.63 323.69 434.16 323.69 434.16Z" fill="#2274C3"/>
<path d="M334.84 438.15C335.078 436.694 335.843 435.377 336.99 434.45C338.113 433.531 339.541 433.067 340.99 433.15L341.05 437.96L334.84 438.15Z" fill="#2274C3"/>
<path d="M316.56 436.11C316.56 436.11 311.45 437.65 312.1 438.49C312.75 439.33 332.42 439.08 341.1 438.21V437.82L318.16 438.31C318.16 438.31 317.57 436.14 316.56 436.11Z" fill="#2274C3"/>
<path d="M341.32 437.81H341.02L340.17 437.88L337.05 438.05C334.4 438.18 330.75 438.31 326.71 438.36C322.67 438.41 319.02 438.36 316.37 438.36L313.24 438.27H312.39H312.09H313.24H316.38C319.02 438.27 322.67 438.27 326.71 438.27C330.75 438.27 334.4 438.1 337.04 438.01L340.17 437.91H341.02L341.32 437.81Z" fill="#263238"/>
<path d="M318.12 438.58C317.979 438.061 317.778 437.561 317.52 437.09C317.207 436.656 316.844 436.26 316.44 435.91C316.982 436.101 317.432 436.491 317.7 437C318.026 437.459 318.175 438.02 318.12 438.58Z" fill="#263238"/>
<path d="M323.17 435.93C323.12 435.93 322.88 435.67 322.62 435.28C322.437 435.056 322.307 434.792 322.24 434.51C322.29 434.51 322.54 434.77 322.79 435.17C323.04 435.57 323.22 435.9 323.17 435.93Z" fill="#263238"/>
<path d="M324.56 435.18C324.56 435.18 324.24 435.04 323.94 434.78C323.64 434.52 323.43 434.27 323.47 434.23C323.51 434.19 323.78 434.36 324.08 434.63C324.38 434.9 324.59 435.14 324.56 435.18Z" fill="#263238"/>
<path d="M325.42 433.54C325.135 433.654 324.826 433.699 324.52 433.67C324.218 433.706 323.911 433.678 323.62 433.59C323.905 433.476 324.214 433.431 324.52 433.46C324.822 433.425 325.129 433.452 325.42 433.54Z" fill="#263238"/>
<path d="M325.71 432.39C325.416 432.592 325.067 432.701 324.71 432.7C324.371 432.759 324.022 432.713 323.71 432.57C324.04 432.513 324.375 432.486 324.71 432.49C325.04 432.43 325.374 432.396 325.71 432.39Z" fill="#263238"/>
<path d="M322.57 434.44C322.203 434.501 321.827 434.501 321.46 434.44C321.06 434.39 320.666 434.306 320.28 434.19C320.043 434.127 319.815 434.036 319.6 433.92C319.468 433.845 319.368 433.724 319.32 433.58C319.304 433.498 319.311 433.413 319.341 433.335C319.371 433.257 319.423 433.19 319.49 433.14C319.907 432.923 320.388 432.861 320.847 432.963C321.306 433.065 321.714 433.326 322 433.7C322.175 433.914 322.301 434.163 322.37 434.43C322.392 434.529 322.392 434.631 322.37 434.73C322.25 434.39 322.074 434.073 321.85 433.79C321.594 433.507 321.265 433.3 320.9 433.19C320.684 433.121 320.456 433.095 320.229 433.114C320.003 433.133 319.782 433.196 319.58 433.3C319.4 433.43 319.48 433.64 319.67 433.75C319.871 433.857 320.082 433.944 320.3 434.01C320.672 434.135 321.053 434.229 321.44 434.29C322.15 434.41 322.57 434.41 322.57 434.44Z" fill="#263238"/>
<path d="M322.28 434.5C322.146 434.267 322.097 433.995 322.14 433.73C322.174 433.44 322.277 433.162 322.44 432.92C322.531 432.754 322.661 432.615 322.821 432.513C322.98 432.412 323.162 432.352 323.35 432.34C323.464 432.362 323.564 432.428 323.63 432.523C323.695 432.619 323.721 432.736 323.7 432.85C323.675 433.027 323.614 433.198 323.52 433.35C323.377 433.596 323.203 433.821 323 434.02C322.835 434.227 322.617 434.385 322.37 434.48C322.37 434.48 322.59 434.28 322.89 433.92C323.07 433.716 323.224 433.491 323.35 433.25C323.5 433.02 323.6 432.6 323.35 432.55C323.1 432.5 322.79 432.81 322.62 433.03C322.469 433.245 322.367 433.491 322.32 433.75C322.286 433.998 322.272 434.249 322.28 434.5Z" fill="#263238"/>
<path d="M340.91 433.1C340.91 433.1 340.41 433.1 339.64 433.16C338.627 433.286 337.67 433.695 336.879 434.341C336.088 434.986 335.496 435.842 335.17 436.81C334.92 437.56 334.9 438.05 334.86 438.05C334.843 437.934 334.843 437.816 334.86 437.7C334.892 437.385 334.952 437.074 335.04 436.77C335.335 435.753 335.932 434.849 336.752 434.178C337.571 433.506 338.575 433.099 339.63 433.01C339.946 432.977 340.264 432.977 340.58 433.01C340.694 433.025 340.805 433.055 340.91 433.1Z" fill="#263238"/>
<path d="M339 426C339.207 428.351 339.267 430.712 339.18 433.07C338.987 430.719 338.927 428.358 339 426Z" fill="#263238"/>
<path d="M332.65 436.5C331.003 436.832 329.31 436.869 327.65 436.61C327.65 436.55 328.78 436.61 330.17 436.61C331.56 436.61 332.64 436.44 332.65 436.5Z" fill="#263238"/>
<path d="M336 436.45C336 436.45 335.91 436.69 335.8 436.95C335.69 437.21 335.63 437.44 335.57 437.43C335.51 437.42 335.48 437.16 335.57 436.86C335.66 436.56 336 436.41 336 436.45Z" fill="#263238"/>
<path d="M337.27 434.85C337.32 434.85 337.21 435.07 337.03 435.25C336.85 435.43 336.68 435.55 336.64 435.51C336.6 435.47 336.7 435.29 336.88 435.11C337.06 434.93 337.23 434.81 337.27 434.85Z" fill="#263238"/>
<path d="M339.08 434.1C339.08 434.16 338.84 434.16 338.59 434.25C338.34 434.34 338.16 434.48 338.11 434.44C338.06 434.4 338.21 434.17 338.52 434.06C338.83 433.95 339.1 434.05 339.08 434.1Z" fill="#263238"/>
<path d="M340.38 433.74C340.38 433.8 340.3 433.89 340.16 433.94C340.02 433.99 339.88 434.01 339.86 433.94C339.84 433.87 339.94 433.8 340.08 433.74C340.22 433.68 340.35 433.69 340.38 433.74Z" fill="#263238"/>
<path d="M411.71 429.41L408.9 420.65L392.47 425.8L396.47 438.65L397.47 438.4C402.09 437.23 420.85 432.13 423.6 430.26C426.66 428.18 411.71 429.41 411.71 429.41Z" fill="#2274C3"/>
<path d="M402.35 436.66C401.677 435.347 400.54 434.331 399.16 433.81C397.803 433.28 396.297 433.28 394.94 433.81L396.38 438.4L402.35 436.66Z" fill="#2274C3"/>
<path d="M419.09 429.05C419.09 429.05 424.43 428.93 424.09 429.93C423.75 430.93 404.96 436.79 396.45 438.65L396.37 438.28L418.32 431.62C418.32 431.62 418.15 429.39 419.09 429.05Z" fill="#2274C3"/>
<path d="M396.08 438.35L396.38 438.29L397.2 438.08L400.2 437.28C402.75 436.58 406.27 435.57 410.12 434.37C413.97 433.17 417.44 432 419.94 431.13L422.89 430.07L423.69 429.77C423.784 429.741 423.875 429.701 423.96 429.65L423.67 429.73L422.86 429.99L419.86 430.99C417.35 431.83 413.86 432.99 410.03 434.17C406.2 435.35 402.67 436.4 400.13 437.17L397.13 438.04L396.32 438.28C396.238 438.297 396.158 438.321 396.08 438.35Z" fill="#263238"/>
<path d="M418.37 431.88C418.353 431.344 418.393 430.807 418.49 430.28C418.652 429.769 418.874 429.279 419.15 428.82C418.693 429.164 418.382 429.667 418.28 430.23C418.115 430.773 418.146 431.358 418.37 431.88Z" fill="#263238"/>
<path d="M412.75 430.93C412.81 430.93 412.95 430.59 413.08 430.14C413.21 429.69 413.25 429.31 413.19 429.29C413.029 429.532 412.92 429.804 412.87 430.09C412.768 430.358 412.727 430.645 412.75 430.93Z" fill="#263238"/>
<path d="M411.2 430.65C411.25 430.65 411.46 430.42 411.66 430.08C411.86 429.74 411.99 429.43 411.94 429.4C411.89 429.37 411.69 429.63 411.48 429.97C411.27 430.31 411.15 430.62 411.2 430.65Z" fill="#263238"/>
<path d="M409.88 429.36C410.185 429.369 410.488 429.314 410.77 429.2C411.068 429.138 411.351 429.015 411.6 428.84C411.295 428.818 410.989 428.873 410.71 429C410.23 429.14 409.86 429.3 409.88 429.36Z" fill="#263238"/>
<path d="M409.25 428.35C409.575 428.455 409.925 428.455 410.25 428.35C410.604 428.302 410.935 428.149 411.2 427.91C410.86 427.959 410.525 428.039 410.2 428.15C409.878 428.19 409.561 428.257 409.25 428.35Z" fill="#263238"/>
<path d="M412.86 429.32C413.231 429.279 413.591 429.167 413.92 428.99C414.287 428.821 414.638 428.62 414.97 428.39C415.173 428.254 415.361 428.097 415.53 427.92C415.63 427.806 415.687 427.661 415.69 427.51C415.681 427.426 415.648 427.346 415.594 427.281C415.541 427.215 415.47 427.166 415.39 427.14C414.925 427.061 414.447 427.15 414.041 427.39C413.635 427.629 413.326 428.005 413.17 428.45C413.076 428.713 413.035 428.991 413.05 429.27C413.045 429.37 413.066 429.47 413.11 429.56C413.113 429.201 413.181 428.845 413.31 428.51C413.461 428.157 413.711 427.855 414.03 427.64C414.214 427.506 414.423 427.41 414.644 427.356C414.865 427.303 415.095 427.294 415.32 427.33C415.52 427.41 415.52 427.62 415.37 427.79C415.213 427.955 415.039 428.103 414.85 428.23C414.533 428.464 414.198 428.675 413.85 428.86C413.26 429.17 412.85 429.29 412.86 429.32Z" fill="#263238"/>
<path d="M413.15 429.29C413.211 429.03 413.176 428.756 413.05 428.52C412.934 428.252 412.751 428.018 412.52 427.84C412.388 427.717 412.228 427.628 412.053 427.581C411.879 427.534 411.696 427.53 411.52 427.57C411.47 427.597 411.425 427.634 411.389 427.679C411.354 427.723 411.327 427.774 411.311 427.829C411.295 427.884 411.291 427.942 411.297 427.999C411.304 428.055 411.322 428.11 411.35 428.16C411.423 428.323 411.533 428.466 411.67 428.58C411.884 428.767 412.119 428.928 412.37 429.06C412.591 429.204 412.847 429.286 413.11 429.3C413.11 429.3 412.84 429.18 412.44 428.93C412.211 428.788 411.997 428.624 411.8 428.44C411.59 428.26 411.36 427.89 411.61 427.76C411.758 427.733 411.911 427.739 412.056 427.779C412.202 427.819 412.336 427.891 412.45 427.99C412.661 428.147 412.835 428.349 412.96 428.58C413.051 428.808 413.115 429.047 413.15 429.29Z" fill="#263238"/>
<path d="M395 433.74C395 433.74 395.46 433.55 396.23 433.41C397.232 433.211 398.269 433.302 399.222 433.67C400.174 434.038 401.002 434.669 401.61 435.49C402.08 436.12 402.25 436.59 402.29 436.57C402.273 436.456 402.239 436.345 402.19 436.24C402.066 435.948 401.912 435.67 401.73 435.41C401.133 434.536 400.285 433.863 399.298 433.479C398.311 433.095 397.231 433.019 396.2 433.26C395.891 433.335 395.59 433.439 395.3 433.57C395.192 433.61 395.09 433.668 395 433.74Z" fill="#263238"/>
<path d="M394.58 426.37C395.107 428.669 395.775 430.933 396.58 433.15C396.335 431.994 396.028 430.853 395.66 429.73C395.368 428.589 395.007 427.467 394.58 426.37Z" fill="#263238"/>
<path d="M403.92 434.41C404.764 434.343 405.597 434.171 406.4 433.9C407.217 433.684 408.004 433.365 408.74 432.95C408.74 432.9 407.66 433.3 406.34 433.7C405.02 434.1 403.91 434.35 403.92 434.41Z" fill="#263238"/>
<path d="M400.7 435.41C400.7 435.41 400.86 435.61 401.04 435.82C401.22 436.03 401.36 436.23 401.41 436.21C401.46 436.19 401.41 435.93 401.2 435.68C400.99 435.43 400.72 435.36 400.7 435.41Z" fill="#263238"/>
<path d="M399 434.28C399 434.33 399.13 434.47 399.36 434.59C399.59 434.71 399.79 434.76 399.81 434.71C399.83 434.66 399.68 434.52 399.46 434.4C399.24 434.28 399 434.23 399 434.28Z" fill="#263238"/>
<path d="M397.06 434.13C397.06 434.18 397.3 434.13 397.57 434.13C397.84 434.13 398.06 434.22 398.09 434.13C398.12 434.04 397.91 433.9 397.58 433.89C397.25 433.88 397 434.08 397.06 434.13Z" fill="#263238"/>
<path d="M395.72 434.19C395.72 434.25 395.84 434.3 395.99 434.31C396.14 434.32 396.27 434.31 396.27 434.23C396.27 434.15 396.16 434.12 396 434.11C395.84 434.1 395.72 434.13 395.72 434.19Z" fill="#263238"/>
<path d="M311.97 251.55L320.01 430.2L346.83 430.76L342.38 281.2L390.98 432.54L412.9 426.54L363.99 251.55" fill="#263238"/>
<path d="M389.83 431.53L391.08 433.93L414.31 427.16L412.9 423.26L389.83 431.53Z" fill="#455A64"/>
<path d="M410.22 422.37C410.36 422.37 410.57 422.62 410.69 423.01C410.81 423.4 410.79 423.77 410.69 423.81C410.59 423.85 410.35 423.56 410.23 423.16C410.11 422.76 410.08 422.41 410.22 422.37Z" fill="#455A64"/>
<path d="M408.48 416.57C408.62 416.57 408.93 417.14 409.17 417.94C409.41 418.74 409.49 419.43 409.35 419.47C409.21 419.51 408.91 418.9 408.67 418.09C408.43 417.28 408.34 416.61 408.48 416.57Z" fill="#455A64"/>
<path d="M406.74 410.77C406.88 410.77 407.19 411.34 407.43 412.14C407.67 412.94 407.75 413.63 407.61 413.67C407.47 413.71 407.17 413.09 406.93 412.29C406.69 411.49 406.6 410.81 406.74 410.77Z" fill="#455A64"/>
<path d="M405 405C405.14 405 405.45 405.57 405.69 406.37C405.93 407.17 406.01 407.86 405.87 407.9C405.73 407.94 405.43 407.32 405.19 406.52C404.95 405.72 404.86 405 405 405Z" fill="#455A64"/>
<path d="M403.26 399.17C403.4 399.17 403.71 399.74 403.95 400.54C404.19 401.34 404.27 402.03 404.13 402.07C403.99 402.11 403.69 401.49 403.45 400.69C403.21 399.89 403.13 399.21 403.26 399.17Z" fill="#455A64"/>
<path d="M401.52 393.37C401.66 393.32 401.97 393.94 402.21 394.74C402.45 395.54 402.53 396.22 402.39 396.27C402.25 396.32 401.95 395.69 401.71 394.89C401.47 394.09 401.39 393.41 401.52 393.37Z" fill="#455A64"/>
<path d="M399.78 387.56C399.92 387.56 400.23 388.14 400.47 388.94C400.71 389.74 400.79 390.42 400.65 390.47C400.51 390.52 400.21 389.89 399.97 389.09C399.73 388.29 399.65 387.61 399.78 387.56Z" fill="#455A64"/>
<path d="M398 381.76C398.14 381.76 398.45 382.34 398.69 383.14C398.93 383.94 399.01 384.62 398.87 384.66C398.73 384.7 398.43 384.09 398.19 383.29C397.95 382.49 397.91 381.81 398 381.76Z" fill="#455A64"/>
<path d="M396.3 376C396.44 376 396.75 376.58 396.99 377.38C397.23 378.18 397.31 378.86 397.17 378.9C397.03 378.94 396.73 378.33 396.49 377.53C396.25 376.73 396.17 376 396.3 376Z" fill="#455A64"/>
<path d="M394.56 370.16C394.7 370.16 395.01 370.74 395.25 371.54C395.49 372.34 395.57 373.02 395.43 373.06C395.29 373.1 394.99 372.49 394.75 371.69C394.51 370.89 394.43 370.2 394.56 370.16Z" fill="#455A64"/>
<path d="M392.83 364.36C392.96 364.36 393.27 364.94 393.51 365.74C393.75 366.54 393.83 367.22 393.7 367.26C393.57 367.3 393.25 366.69 393.01 365.89C392.77 365.09 392.69 364.4 392.83 364.36Z" fill="#455A64"/>
<path d="M391.09 358.56C391.22 358.56 391.53 359.13 391.77 359.94C392.01 360.75 392.09 361.42 391.96 361.46C391.83 361.5 391.51 360.89 391.27 360.09C391.03 359.29 391 358.6 391.09 358.56Z" fill="#455A64"/>
<path d="M389.35 352.76C389.48 352.76 389.79 353.33 390.03 354.13C390.27 354.93 390.35 355.62 390.22 355.66C390.09 355.7 389.77 355.09 389.53 354.28C389.29 353.47 389.21 352.8 389.35 352.76Z" fill="#455A64"/>
<path d="M387.61 347C387.74 347 388.05 347.57 388.29 348.37C388.53 349.17 388.61 349.86 388.48 349.9C388.35 349.94 388.03 349.32 387.79 348.52C387.55 347.72 387.47 347 387.61 347Z" fill="#455A64"/>
<path d="M385.87 341.16C386 341.16 386.31 341.73 386.55 342.53C386.79 343.33 386.87 344.02 386.74 344.06C386.61 344.1 386.29 343.48 386.05 342.68C385.81 341.88 385.73 341.2 385.87 341.16Z" fill="#455A64"/>
<path d="M384.13 335.36C384.27 335.36 384.57 335.93 384.81 336.73C385.05 337.53 385.14 338.22 385 338.26C384.86 338.3 384.55 337.68 384.31 336.88C384.07 336.08 384 335.4 384.13 335.36Z" fill="#455A64"/>
<path d="M382.39 329.56C382.53 329.51 382.83 330.13 383.07 330.93C383.31 331.73 383.4 332.41 383.26 332.46C383.12 332.51 382.81 331.88 382.57 331.08C382.33 330.28 382.25 329.6 382.39 329.56Z" fill="#455A64"/>
<path d="M380.65 323.75C380.79 323.75 381.09 324.33 381.33 325.13C381.57 325.93 381.66 326.61 381.52 326.66C381.38 326.71 381.07 326.08 380.83 325.28C380.59 324.48 380.51 323.8 380.65 323.75Z" fill="#455A64"/>
<path d="M378.91 318C379.05 318 379.35 318.58 379.59 319.38C379.83 320.18 379.92 320.86 379.78 320.9C379.64 320.94 379.33 320.33 379.09 319.53C378.85 318.73 378.77 318 378.91 318Z" fill="#455A64"/>
<path d="M377.17 312.15C377.31 312.15 377.61 312.73 377.85 313.53C378.09 314.33 378.18 315.01 378.04 315.05C377.9 315.09 377.59 314.48 377.35 313.68C377.11 312.88 377 312.19 377.17 312.15Z" fill="#455A64"/>
<path d="M375.43 306.35C375.57 306.35 375.87 306.93 376.11 307.73C376.35 308.53 376.44 309.21 376.3 309.25C376.16 309.29 375.86 308.68 375.61 307.88C375.36 307.08 375.29 306.39 375.43 306.35Z" fill="#455A64"/>
<path d="M373.69 300.55C373.83 300.55 374.13 301.13 374.37 301.93C374.61 302.73 374.7 303.41 374.56 303.45C374.42 303.49 374.12 302.88 373.88 302.08C373.64 301.28 373.55 300.59 373.69 300.55Z" fill="#455A64"/>
<path d="M372 294.75C372.14 294.75 372.44 295.32 372.68 296.13C372.92 296.94 373.01 297.61 372.87 297.65C372.73 297.69 372.43 297.08 372.19 296.28C371.95 295.48 371.81 294.79 372 294.75Z" fill="#455A64"/>
<path d="M370.21 289C370.35 289 370.65 289.57 370.9 290.37C371.15 291.17 371.22 291.86 371.08 291.9C370.94 291.94 370.64 291.33 370.4 290.52C370.16 289.71 370.07 289 370.21 289Z" fill="#455A64"/>
<path d="M368.47 283.15C368.61 283.15 368.92 283.72 369.16 284.52C369.4 285.32 369.48 286.01 369.34 286.05C369.2 286.09 368.9 285.47 368.66 284.67C368.42 283.87 368.33 283.19 368.47 283.15Z" fill="#455A64"/>
<path d="M366.73 277.35C366.87 277.35 367.18 277.92 367.42 278.72C367.66 279.52 367.74 280.21 367.6 280.25C367.46 280.29 367.16 279.67 366.92 278.87C366.68 278.07 366.59 277.39 366.73 277.35Z" fill="#455A64"/>
<path d="M365 271.55C365.14 271.55 365.45 272.12 365.69 272.92C365.93 273.72 366.01 274.41 365.87 274.45C365.73 274.49 365.43 273.87 365.19 273.07C364.95 272.27 364.85 271.59 365 271.55Z" fill="#455A64"/>
<path d="M363.25 265.75C363.39 265.7 363.7 266.32 363.94 267.12C364.18 267.92 364.26 268.6 364.12 268.65C363.98 268.7 363.68 268.07 363.44 267.27C363.2 266.47 363.11 265.79 363.25 265.75Z" fill="#455A64"/>
<path d="M361.51 259.94C361.65 259.94 361.96 260.52 362.2 261.32C362.44 262.12 362.52 262.8 362.38 262.85C362.24 262.9 361.94 262.27 361.7 261.47C361.46 260.67 361.38 260 361.51 259.94Z" fill="#455A64"/>
<path d="M360.21 255.61C360.35 255.61 360.56 255.85 360.68 256.25C360.8 256.65 360.78 257 360.68 257.04C360.58 257.08 360.34 256.8 360.22 256.4C360.1 256 360.07 255.65 360.21 255.61Z" fill="#455A64"/>
<path d="M342.21 429.3C342.35 429.3 342.48 429.62 342.51 430.03C342.54 430.44 342.43 430.79 342.28 430.8C342.13 430.81 342.01 430.48 341.99 430.06C341.97 429.64 342.06 429.31 342.21 429.3Z" fill="#455A64"/>
<path d="M342 423.35C342.14 423.35 342.29 424 342.32 424.83C342.35 425.66 342.26 426.32 342.11 426.32C341.96 426.32 341.83 425.67 341.8 424.85C341.77 424.03 341.82 423.35 342 423.35Z" fill="#455A64"/>
<path d="M341.78 417.4C341.92 417.4 342.06 418.05 342.08 418.88C342.1 419.71 342.01 420.37 341.86 420.37C341.71 420.37 341.58 419.71 341.56 418.89C341.54 418.07 341.63 417.4 341.78 417.4Z" fill="#455A64"/>
<path d="M341.63 411.44C341.77 411.44 341.9 412.1 341.92 412.92C341.94 413.74 341.84 414.41 341.7 414.42C341.56 414.43 341.42 413.76 341.4 412.94C341.38 412.12 341.48 411.44 341.63 411.44Z" fill="#455A64"/>
<path d="M341.48 405.48C341.63 405.48 341.76 406.14 341.78 406.97C341.8 407.8 341.7 408.46 341.56 408.46C341.42 408.46 341.28 407.8 341.26 406.98C341.24 406.16 341.34 405.49 341.48 405.48Z" fill="#455A64"/>
<path d="M341.33 399.52C341.47 399.52 341.61 400.18 341.63 401.01C341.65 401.84 341.55 402.5 341.41 402.5C341.27 402.5 341.13 401.84 341.11 401.02C341.09 400.2 341.19 399.53 341.33 399.52Z" fill="#455A64"/>
<path d="M341.13 393.57C341.28 393.57 341.42 394.22 341.45 395.05C341.48 395.88 341.38 396.54 341.24 396.55C341.1 396.56 340.95 395.89 340.93 395.07C340.91 394.25 341 393.57 341.13 393.57Z" fill="#455A64"/>
<path d="M340.88 387.62C341.03 387.62 341.17 388.27 341.21 389.09C341.25 389.91 341.15 390.59 341.01 390.59C340.87 390.59 340.72 389.94 340.68 389.11C340.64 388.28 340.74 387.62 340.88 387.62Z" fill="#455A64"/>
<path d="M340.65 381.66C340.79 381.66 340.94 382.32 340.97 383.14C341 383.96 340.91 384.63 340.76 384.64C340.61 384.65 340.48 383.98 340.45 383.16C340.42 382.34 340.51 381.67 340.65 381.66Z" fill="#455A64"/>
<path d="M340.44 375.71C340.59 375.71 340.73 376.37 340.75 377.19C340.77 378.01 340.69 378.68 340.54 378.69C340.39 378.7 340.26 378.03 340.23 377.21C340.2 376.39 340.3 375.72 340.44 375.71Z" fill="#455A64"/>
<path d="M340.26 369.75C340.4 369.75 340.54 370.41 340.56 371.23C340.58 372.05 340.49 372.72 340.35 372.73C340.21 372.74 340.07 372.07 340.04 371.25C340.01 370.43 340.12 369.76 340.26 369.75Z" fill="#455A64"/>
<path d="M340.1 363.8C340.25 363.8 340.38 364.46 340.4 365.28C340.42 366.1 340.32 366.77 340.18 366.77C340.04 366.77 339.9 366.11 339.88 365.29C339.86 364.47 340 363.8 340.1 363.8Z" fill="#455A64"/>
<path d="M340 357.84C340.14 357.84 340.27 358.5 340.29 359.33C340.31 360.16 340.2 360.82 340.06 360.82C339.92 360.82 339.78 360.16 339.77 359.34C339.76 358.52 339.83 357.84 340 357.84Z" fill="#455A64"/>
<path d="M339.88 351.89C340.02 351.89 340.15 352.55 340.16 353.37C340.17 354.19 340.07 354.86 339.92 354.86C339.77 354.86 339.65 354.2 339.64 353.38C339.63 352.56 339.73 351.89 339.88 351.89Z" fill="#455A64"/>
<path d="M339.8 345.93C339.95 345.93 340.07 346.59 340.08 347.42C340.09 348.25 339.98 348.91 339.84 348.91C339.7 348.91 339.57 348.24 339.56 347.42C339.55 346.6 339.66 345.93 339.8 345.93Z" fill="#455A64"/>
<path d="M339.76 340C339.91 340 340.03 340.67 340.03 341.49C340.03 342.31 339.92 342.98 339.78 342.98C339.64 342.98 339.52 342.32 339.51 341.49C339.5 340.66 339.62 340 339.76 340Z" fill="#455A64"/>
<path d="M339.75 334C339.89 334 340.01 334.66 340.01 335.49C340.01 336.32 339.9 336.97 339.75 336.98C339.6 336.99 339.49 336.31 339.49 335.49C339.49 334.67 339.61 334 339.75 334Z" fill="#455A64"/>
<path d="M339.77 328.06C339.91 328.06 340.02 328.73 340.02 329.55C340.02 330.37 339.9 331.04 339.75 331.04C339.6 331.04 339.5 330.37 339.5 329.55C339.5 328.73 339.62 328.06 339.77 328.06Z" fill="#455A64"/>
<path d="M339.81 322.1C339.96 322.1 340.07 322.77 340.06 323.59C340.05 324.41 339.93 325.08 339.79 325.08C339.65 325.08 339.53 324.41 339.54 323.59C339.55 322.77 339.67 322.1 339.81 322.1Z" fill="#455A64"/>
<path d="M339.89 316.15C340.03 316.15 340.14 316.82 340.13 317.64C340.12 318.46 339.99 319.13 339.85 319.13C339.71 319.13 339.6 318.46 339.61 317.63C339.62 316.8 339.75 316.15 339.89 316.15Z" fill="#455A64"/>
<path d="M340 310.19C340.14 310.19 340.24 310.87 340.23 311.69C340.22 312.51 340.08 313.17 339.94 313.17C339.8 313.17 339.69 312.5 339.71 311.68C339.73 310.86 339.85 310.19 340 310.19Z" fill="#455A64"/>
<path d="M340.13 304.23C340.27 304.23 340.37 304.91 340.35 305.73C340.33 306.55 340.2 307.22 340.06 307.21C339.92 307.2 339.81 306.54 339.83 305.72C339.85 304.9 340 304.23 340.13 304.23Z" fill="#455A64"/>
<path d="M340.34 298.27C340.48 298.27 340.57 298.95 340.54 299.77C340.51 300.59 340.37 301.26 340.22 301.25C340.07 301.24 339.99 300.58 340.02 299.75C340.05 298.92 340.2 298.27 340.34 298.27Z" fill="#455A64"/>
<path d="M340.69 292.33C340.83 292.33 340.9 293.01 340.85 293.83C340.8 294.65 340.64 295.31 340.49 295.3C340.34 295.29 340.28 294.62 340.33 293.79C340.38 292.96 340.54 292.31 340.69 292.33Z" fill="#455A64"/>
<path d="M341.23 286.39C341.38 286.39 341.42 287.08 341.34 287.9C341.26 288.72 341.07 289.37 340.93 289.36C340.79 289.35 340.74 288.67 340.82 287.85C340.9 287.03 341.09 286.38 341.23 286.39Z" fill="#455A64"/>
<path d="M341.81 282C341.95 282 342.02 282.37 341.96 282.77C341.9 283.17 341.74 283.5 341.6 283.48C341.46 283.46 341.39 283.11 341.44 282.7C341.49 282.29 341.67 281.94 341.81 282Z" fill="#455A64"/>
<path d="M319.31 431.07L347.67 431.53L347.45 426.8L319.31 426.95V431.07Z" fill="#455A64"/>
<path d="M337.91 253.81C338.01 254.165 338.067 254.531 338.08 254.9C338.15 255.61 338.25 256.63 338.35 257.9C338.55 260.43 338.8 263.9 339.03 267.78C339.15 269.7 339.25 271.54 339.35 273.22C339.333 274.686 339.508 276.149 339.87 277.57C340.165 278.498 340.816 279.271 341.68 279.72C342.005 279.847 342.339 279.947 342.68 280.02C342.585 280.043 342.485 280.043 342.39 280.02C342.11 280.02 341.832 279.97 341.57 279.87C341.09 279.664 340.658 279.361 340.3 278.981C339.943 278.601 339.667 278.151 339.49 277.66C339.067 276.214 338.849 274.716 338.84 273.21C338.73 271.53 338.61 269.69 338.49 267.77C338.25 263.91 338.06 260.42 337.95 257.89C337.89 256.62 337.86 255.6 337.85 254.89C337.821 254.529 337.841 254.166 337.91 253.81Z" fill="#455A64"/>
<path d="M340.66 256.18C340.66 256.25 340.44 256.43 340.41 256.85C340.403 256.961 340.417 257.071 340.453 257.176C340.489 257.281 340.546 257.377 340.62 257.46C340.715 257.541 340.832 257.594 340.956 257.612C341.079 257.629 341.206 257.611 341.32 257.56C341.439 257.519 341.544 257.444 341.622 257.344C341.7 257.245 341.748 257.126 341.76 257C341.756 256.889 341.728 256.781 341.68 256.681C341.632 256.581 341.564 256.492 341.48 256.42C341.17 256.13 340.85 256.19 340.84 256.11C340.83 256.03 341.17 255.81 341.7 256.11C341.851 256.204 341.978 256.331 342.071 256.482C342.165 256.633 342.223 256.803 342.24 256.98C342.24 257.212 342.171 257.438 342.041 257.63C341.911 257.822 341.726 257.971 341.511 258.057C341.296 258.143 341.059 258.163 340.833 258.113C340.606 258.064 340.4 257.948 340.24 257.78C340.127 257.643 340.047 257.481 340.009 257.307C339.971 257.133 339.975 256.952 340.02 256.78C340.22 256.2 340.66 256.12 340.66 256.18Z" fill="#455A64"/>
<path d="M365.9 260.42C365.233 260.873 364.469 261.164 363.67 261.27C361.745 261.657 359.748 261.435 357.955 260.634C356.163 259.832 354.665 258.492 353.67 256.8C353.212 256.135 352.917 255.371 352.81 254.57C352.9 254.57 353.17 255.41 353.98 256.57C355.005 258.131 356.456 259.367 358.16 260.13C359.865 260.894 361.752 261.154 363.6 260.88C365 260.71 365.87 260.34 365.9 260.42Z" fill="#455A64"/>
<path d="M321.3 253.81C321.431 254.455 321.397 255.122 321.2 255.75C320.838 257.301 319.998 258.7 318.8 259.75C317.595 260.802 316.092 261.452 314.5 261.61C313.854 261.722 313.189 261.667 312.57 261.45C312.57 261.36 313.32 261.45 314.46 261.24C315.941 260.994 317.325 260.343 318.46 259.36C319.577 258.358 320.403 257.073 320.85 255.64C321.19 254.55 321.21 253.81 321.3 253.81Z" fill="#455A64"/>
<path d="M317.31 176.14C317.31 176.14 290.59 187.44 289.74 187.01C288.89 186.58 288.29 165.06 288.29 165.06H275C275 165.06 272.48 196.98 280.49 202.06C291.44 209.06 317.95 194.5 317.95 194.5L317.31 176.14Z" fill="#FFBE9D"/>
<path d="M228.08 137.59L225.34 149.53L238.16 152.58C238.16 152.58 243.43 153.75 248.67 161.22C253.91 168.69 255.94 172 255.94 172L264.82 128.12L255.18 135C253.269 136.344 251.146 137.358 248.9 138C246.15 138.8 242.48 139.71 240.43 139.61C236.273 139.21 232.148 138.535 228.08 137.59Z" fill="#263238"/>
<path d="M371.93 188.52L255.94 172L264.82 128.12L377.6 155.32C378.814 155.612 379.873 156.352 380.563 157.393C381.254 158.434 381.524 159.698 381.32 160.93L377.51 184.41C377.291 185.683 376.588 186.822 375.548 187.589C374.507 188.355 373.211 188.689 371.93 188.52Z" fill="#2274C3"/>
<path d="M217.73 138.15C217.65 138.135 217.567 138.141 217.489 138.165C217.411 138.19 217.341 138.233 217.284 138.291C217.227 138.35 217.184 138.421 217.161 138.499C217.138 138.577 217.134 138.66 217.15 138.74C217.635 141.335 218.273 143.9 219.06 146.42C219.33 147.11 225.75 147.73 225.75 147.73L227.52 140.02L217.73 138.15Z" fill="#2274C3"/>
<path d="M362.62 173.41L364.39 166.32L289.46 151.12L287.93 158.25L362.62 173.41Z" fill="#263238"/>
<path d="M348.06 173.17L331.5 171.84C331.39 169.91 331.5 162.43 331.5 162.43C331.5 162.43 324.61 161.36 324.5 154.43C324.39 147.5 325.61 131.73 325.61 131.73C329.523 130.044 333.815 129.433 338.043 129.96C342.271 130.488 346.281 132.134 349.66 134.73L350.66 135.52L348.06 173.17Z" fill="#FFBE9D"/>
<path d="M327.25 143.6C327.429 143.418 327.531 143.175 327.536 142.92C327.541 142.665 327.449 142.417 327.277 142.228C327.106 142.039 326.869 141.923 326.615 141.903C326.361 141.883 326.109 141.96 325.91 142.12C325.812 142.208 325.732 142.315 325.675 142.434C325.618 142.554 325.585 142.683 325.579 142.815C325.572 142.947 325.592 143.079 325.637 143.204C325.682 143.328 325.751 143.442 325.84 143.54C326.019 143.734 326.268 143.85 326.533 143.861C326.797 143.872 327.055 143.778 327.25 143.6Z" fill="#263238"/>
<path d="M325.58 142C325.69 142.12 326.37 141.6 327.31 141.6C328.25 141.6 328.95 142.08 329.06 141.96C329.17 141.84 329 141.69 328.7 141.46C328.294 141.172 327.808 141.018 327.31 141.02C326.81 141.025 326.325 141.194 325.93 141.5C325.63 141.76 325.53 142 325.58 142Z" fill="#263238"/>
<path d="M336.51 142.86C336.392 142.926 336.289 143.015 336.207 143.122C336.124 143.229 336.064 143.351 336.03 143.482C335.996 143.612 335.989 143.748 336.009 143.882C336.029 144.015 336.076 144.143 336.147 144.258C336.218 144.373 336.312 144.472 336.422 144.55C336.532 144.628 336.657 144.682 336.789 144.711C336.921 144.739 337.058 144.74 337.19 144.714C337.323 144.688 337.448 144.636 337.56 144.56C337.785 144.421 337.946 144.2 338.007 143.943C338.069 143.686 338.027 143.416 337.89 143.19C337.821 143.077 337.731 142.979 337.625 142.902C337.518 142.824 337.397 142.768 337.269 142.738C337.14 142.707 337.007 142.702 336.877 142.723C336.747 142.744 336.622 142.791 336.51 142.86Z" fill="#263238"/>
<path d="M335.89 142.87C335.99 142.99 336.67 142.47 337.62 142.46C338.57 142.45 339.26 142.95 339.36 142.83C339.46 142.71 339.31 142.56 339.01 142.33C338.604 142.035 338.112 141.881 337.61 141.89C337.112 141.896 336.629 142.061 336.23 142.36C335.94 142.6 335.83 142.82 335.89 142.87Z" fill="#263238"/>
<path d="M332.08 150.69C331.591 150.499 331.074 150.391 330.55 150.37C330.3 150.37 330.11 150.29 330.09 150.15C330.08 149.902 330.139 149.656 330.26 149.44C330.51 148.82 330.76 148.18 331.02 147.51C331.727 145.881 332.27 144.186 332.64 142.45C331.768 143.997 331.054 145.629 330.51 147.32C330.27 147.99 330.03 148.63 329.8 149.32C329.649 149.63 329.6 149.98 329.66 150.32C329.697 150.413 329.755 150.497 329.83 150.565C329.904 150.632 329.993 150.682 330.09 150.71C330.227 150.745 330.368 150.766 330.51 150.77C331.034 150.837 331.566 150.81 332.08 150.69Z" fill="#263238"/>
<path d="M335.16 151.74C336.16 151.15 332.44 153.19 330.51 153.09C330.838 153.582 331.323 153.949 331.886 154.13C332.449 154.312 333.056 154.298 333.61 154.09C335.67 153.38 335.16 151.74 335.16 151.74Z" fill="white"/>
<path d="M331.52 162.33C334.707 162.395 337.841 161.508 340.52 159.78C340.52 159.78 338.4 164.78 331.52 164.12V162.33Z" fill="#EB996E"/>
<path d="M350.76 142.24C350.91 142.19 355.89 141.86 355.07 147.66C354.25 153.46 348.65 150.72 348.66 150.55C348.67 150.38 350.76 142.24 350.76 142.24Z" fill="#FFBE9D"/>
<path d="M350.73 148.76C350.73 148.76 350.82 148.85 350.98 148.95C351.093 149.019 351.218 149.065 351.348 149.086C351.478 149.107 351.612 149.101 351.74 149.07C352.15 148.888 352.502 148.598 352.761 148.232C353.02 147.866 353.175 147.437 353.21 146.99C353.293 146.494 353.27 145.986 353.14 145.5C353.111 145.312 353.036 145.133 352.923 144.98C352.81 144.827 352.661 144.703 352.49 144.62C352.378 144.573 352.253 144.567 352.136 144.602C352.02 144.636 351.919 144.71 351.85 144.81C351.75 144.96 351.77 145.08 351.74 145.09C351.71 145.1 351.63 144.98 351.74 144.74C351.79 144.599 351.889 144.482 352.02 144.41C352.198 144.314 352.405 144.289 352.6 144.34C352.825 144.418 353.027 144.55 353.189 144.725C353.351 144.899 353.468 145.11 353.53 145.34C353.702 145.879 353.743 146.452 353.65 147.01C353.605 147.532 353.407 148.03 353.079 148.439C352.751 148.849 352.31 149.152 351.81 149.31C351.648 149.334 351.482 149.32 351.326 149.27C351.17 149.22 351.028 149.134 350.91 149.02C350.72 148.91 350.71 148.77 350.73 148.76Z" fill="#EB996E"/>
<path d="M325.68 131.56C327.47 136.29 334.33 138.16 339.37 138.44C337.04 136.39 338.48 136.82 337.04 135.38C340.928 138.743 345.899 140.593 351.04 140.59C351.426 139.422 351.574 138.188 351.474 136.962C351.375 135.736 351.031 134.542 350.462 133.451C349.893 132.36 349.112 131.395 348.163 130.611C347.215 129.828 346.119 129.242 344.94 128.89C343.39 128.42 341.74 128.38 340.16 128.01C338.83 127.7 337.55 127.17 336.16 127.01C332.1 126.41 325.51 125.31 325.62 131.6" fill="#263238"/>
<path d="M348 138C348.26 138.67 349.71 146.49 349.71 146.49L351.47 138.95L348 138Z" fill="#263238"/>
<path d="M397.25 234.71C399.913 231.648 401.372 227.723 401.358 223.665C401.343 219.607 399.855 215.693 397.17 212.65L370.43 182.33L363.27 202.33C363.76 202.65 384.09 224.45 384.09 224.45L366.62 246.23C365.293 247.881 364.407 249.841 364.043 251.927C363.679 254.013 363.85 256.158 364.54 258.16L369.21 269.59L382 263.86L381 262.37H371.41L370.84 260.07L397.25 234.71Z" fill="#FFBE9D"/>
<path d="M384.58 195.15L367.69 178.15C364.436 174.749 360.433 172.153 356 170.57C353.65 169.731 351.184 169.258 348.69 169.17C342.947 170.99 336.783 170.99 331.04 169.17C326.206 169.698 321.497 171.051 317.12 173.17L291.91 183.4L300 205.7L313.53 201.15L314.33 222.15L311.65 253.52L364 254L363.32 225.54V204.96L370.88 212.31L384.58 195.15Z" fill="#455A64"/>
</svg>
